<svg width="100" height="100" viewBox="0 0 100 100" xmlns="http://www.w3.org/2000/svg">
<defs>
<linearGradient id="lc" x1="0" y1="0" x2="1" y2="1"><stop offset="0%" stop-color="#5B4BFF"/><stop offset="100%" stop-color="#EE11FB"/></linearGradient>
<radialGradient id="gl" cx="50%" cy="42%" r="40%"><stop offset="0%" stop-color="#EE11FB" stop-opacity="0.30"/><stop offset="100%" stop-color="#EE11FB" stop-opacity="0"/></radialGradient>
</defs>
<rect x="0" y="0" width="100" height="100" rx="24" fill="#14152C"/>
<circle cx="50" cy="42" r="25" fill="url(#gl)"/>
<path d="M50 12 a25 25 0 0 1 18 43 c-3 3 -4 6 -4 10 l-28 0 c0 -4 -1 -7 -4 -10 a25 25 0 0 1 18 -43 Z" fill="none" stroke="url(#lc)" stroke-width="4"/>
<path d="M40 65 l20 0 l-2 12 l-16 0 Z" fill="none" stroke="url(#lc)" stroke-width="3.5" stroke-linejoin="round"/>
<g stroke="url(#lc)" stroke-width="3" stroke-linecap="round"><line x1="41" y1="69" x2="59" y2="69"/><line x1="42" y1="73" x2="58" y2="73"/></g>
<path d="M36 50 L38 34 L62 34 L64 50" fill="none" stroke="url(#lc)" stroke-width="5" stroke-linecap="round" stroke-linejoin="round"/>
</svg>
