<svg width="100" height="100" viewBox="0 0 100 100" xmlns="http://www.w3.org/2000/svg">
  <defs>
    <linearGradient id="lc" x1="0" y1="0" x2="1" y2="1">
      <stop offset="0%" stop-color="#5B4BFF"/>
      <stop offset="100%" stop-color="#EE11FB"/>
    </linearGradient>
    <radialGradient id="gl" cx="50%" cy="44%" r="42%">
      <stop offset="0%" stop-color="#EE11FB" stop-opacity="0.30"/>
      <stop offset="100%" stop-color="#EE11FB" stop-opacity="0"/>
    </radialGradient>
  </defs>
  <rect x="0" y="0" width="100" height="100" rx="24" fill="#14152C"/>
  <circle cx="50" cy="44" r="27" fill="url(#gl)"/>
  <path d="M50 14 a27 27 0 0 1 19 46 c-3 3 -5 7 -5 12 l-28 0 c0 -5 -2 -9 -5 -12 a27 27 0 0 1 19 -46 Z" fill="none" stroke="url(#lc)" stroke-width="4"/>
  <g stroke="url(#lc)" stroke-width="4" stroke-linecap="round">
    <line x1="40" y1="79" x2="60" y2="79"/>
    <line x1="42" y1="85" x2="58" y2="85"/>
  </g>
  <path d="M37 53 L39 36 L61 36 L63 53" fill="none" stroke="url(#lc)" stroke-width="5" stroke-linecap="round" stroke-linejoin="round"/>
</svg>
