<svg width="100" height="100" viewBox="0 0 100 100" xmlns="http://www.w3.org/2000/svg">
<defs>
<linearGradient id="lc" x1="0" y1="0" x2="1" y2="1"><stop offset="0%" stop-color="#5B4BFF"/><stop offset="100%" stop-color="#EE11FB"/></linearGradient>
<radialGradient id="gl" cx="50%" cy="38%" r="42%"><stop offset="0%" stop-color="#EE11FB" stop-opacity="0.32"/><stop offset="100%" stop-color="#EE11FB" stop-opacity="0"/></radialGradient>
</defs>
<rect x="0" y="0" width="100" height="100" rx="24" fill="#14152C"/>
<circle cx="50" cy="38" r="30" fill="url(#gl)"/>
<path d="M50 6 a30 30 0 0 1 21 51 c-4 4 -6 8 -6 13 l-30 0 c0 -5 -2 -9 -6 -13 a30 30 0 0 1 21 -51 Z" fill="none" stroke="url(#lc)" stroke-width="4.5"/>
<g stroke="url(#lc)" stroke-width="4" stroke-linecap="round" stroke-linejoin="round" fill="none">
<path d="M43 70 l14 0 l-1 18 l-12 0 Z"/>
<line x1="44" y1="77" x2="56" y2="77"/><line x1="45" y1="83" x2="55" y2="83"/>
</g>
<path d="M30 30 L70 30 L70 36 L57 36 L57 50 L51 50 L51 36 L49 36 L49 50 L43 50 L43 36 L30 36 Z" fill="url(#lc)"/>
</svg>
